<?xml version="1.0" encoding="utf-8"?>
<!-- Generator: Adobe Illustrator 16.0.0, SVG Export Plug-In . SVG Version: 6.00 Build 0)  -->
<!DOCTYPE svg PUBLIC "-//W3C//DTD SVG 1.1//EN" "http://www.w3.org/Graphics/SVG/1.1/DTD/svg11.dtd">
<svg version="1.1" id="Layer_1" xmlns="http://www.w3.org/2000/svg" xmlns:xlink="http://www.w3.org/1999/xlink" x="0px" y="0px"
	 width="310.299px" height="30px" viewBox="0 0 310.299 30" enable-background="new 0 0 310.299 30" xml:space="preserve">
<g>
	<g>
		<path fill="#5E6A71" d="M16.55,25.418l-4.381,3.121l-4.386-3.121c-3.112-2.13-5.779-3.954-7.179-6.73
			C1.759,23.885,6.84,25.834,12.168,30c5.32-4.166,10.406-6.115,11.561-11.312C22.33,21.464,19.66,23.288,16.55,25.418z"/>
		<g>
			<path fill="#981E32" d="M0,0v0.545c0.34,0.119,0.449,0.227,0.486,0.719v12.564c0,6.984,5.685,8.834,11.682,13.527
				c6.002-4.693,11.688-6.543,11.688-13.527V1.121c0.043-0.376,0.165-0.473,0.47-0.576V0H0z"/>
		</g>
		<g>
			<g>
				<g>
					<path fill="#FFFFFF" d="M14.535,20.453c0,0,0.975-0.414,1.504-2.021c0.47,0.979,0.348,1.986,0.348,1.986
						C15.955,20.518,14.535,20.453,14.535,20.453z"/>
					<path fill="#FFFFFF" d="M19.754,11.26c0,0,0.592,3.231-1.508,3.34c-2.022,0.111-2.977-2.939-2.977-2.939
						s0.488,5.955,3.324,5.562C21.794,16.782,19.754,11.26,19.754,11.26z"/>
				</g>
			</g>
			<path fill="#FFFFFF" d="M4.337,19.684h0.005c2.367-0.539,4.177-3.301,4.709-4.41L9.39,14.57l0.205,0.754
				c0.011,0.037,0.231,0.867,0.231,1.966c0,0.119-0.006,0.242-0.013,0.371c0.816,0.03,1.401-0.134,1.761-0.515
				c0.521-0.537,0.68-1.56,0.484-3.113c-0.095-0.747-0.37-1.933-0.613-2.977c-0.125-0.538-0.242-1.04-0.313-1.397
				c-0.458-2.29,0.11-3.715,0.666-4.499c0.088-0.126,0.183-0.241,0.282-0.355c-1.64,0.551-3.012,1.411-4.431,2.828L8.65,8.787
				l0.405-0.382c0.388,1.437,0.108,2.76,0.108,2.76C8.64,10.364,8.02,9.718,8.02,9.718l0.274-0.456l-0.9-1.044L7.289,8.104
				c-1.105,1.515-1.463,2.76-1.463,2.76l0.785,0.714l0.457,0.415l0.154-0.438c0.839,1.577,0.07,3.052,0.07,3.052
				C7.156,14.068,6.6,13.271,6.6,13.271l0.219-0.721l-1.164-1.057c-1.214,3.792-2.836,5.018-2.836,5.018s1.754-0.315,2.733-0.645
				C5.552,15.864,5.522,17.861,4.337,19.684z"/>
			<path fill="#FFFFFF" d="M22.031,6.012L19.229,6.13c0.002,0.333-0.04,0.667-0.146,0.978c0.259,1.145,0.078,1.766,0.078,1.766
				c-0.469-1.087-0.825-1.393-0.825-1.393c-2.573-1.143-4.015,1.444-3.861,3.107c0.125,1.373,0.622,3.192,1.009,6.042
				c0.328,2.401-0.885,3.438-2.285,3.679c-0.029,0.004-0.062,0.01-0.091,0.017c-0.011,0-0.014,0.001-0.021,0.001
				c-0.228,0.029-0.47,0.043-0.724,0.031c-0.009,0-0.017,0-0.027,0c-0.023,0-0.053-0.002-0.082-0.002
				c-0.109-0.01-0.217-0.02-0.324-0.03c-1.084-0.151-3.521-0.595-6.037-0.655c1.48-0.861,2.639-2.357,3.285-3.418
				c0.034,0.291,0.066,0.648,0.066,1.047c0,0.197-0.006,0.401-0.024,0.614L9.195,18.2l0.288,0.022
				c1.158,0.103,1.979-0.119,2.513-0.673c0.656-0.685,0.86-1.821,0.64-3.59c-0.097-0.775-0.377-1.977-0.625-3.038
				c-0.123-0.529-0.239-1.03-0.312-1.38c-0.412-2.088,0.082-3.356,0.571-4.052c0.386-0.546,0.916-0.943,1.495-1.134
				c0.014-0.004,0.021-0.004,0.029-0.006l0.953-2.937h0.304l-0.644,2.823c0.148-0.024,0.301-0.052,0.453-0.074l0.827-2.604h0.298
				L15.444,4.08c0.852-0.113,1.779-0.197,2.808-0.274c0.168,0.069,0.349,0.263,0.504,0.531l2.696-0.832l0.098,0.291l-2.576,1
				c0.023,0.052,0.041,0.109,0.062,0.164l2.816-0.35l0.043,0.3l-2.73,0.547c0.007,0.049,0.017,0.103,0.024,0.154l2.845,0.091
				L22.031,6.012z M13.918,7.272c0.565-0.398,1.527-0.705,2.428-0.633c0.229,0.018,0.419-0.044,0.173-0.174
				c-0.674-0.357-2.246-0.234-2.802,0.145C12.828,7.219,12.979,8.3,13,8.325C13.176,8.017,13.477,7.58,13.918,7.272z"/>
		</g>
	</g>
</g>
<g>
	<line fill="none" x1="33.925" y1="0" x2="33.925" y2="29.583"/>
	<rect x="33.567" fill="#68737A" width="0.713" height="29.85"/>
</g>
<g>
	<path fill="#68737A" d="M51.878,2.452c-0.525-0.43-1.719-0.972-2.915-0.972c-2.753,0-4.379,1.975-4.379,4.586
		c0,2.818,1.944,4.712,4.379,4.712c1.21,0,2.166-0.382,2.819-0.827l0.605,0.923c-0.75,0.51-2.069,1.019-3.503,1.019
		c-3.981,0-6.002-2.723-6.002-5.795c0-2.804,2.197-5.734,6.193-5.734c1.592,0,2.708,0.558,3.44,1.131L51.878,2.452z"/>
	<path fill="#68737A" d="M53.246,7.627c0-2.579,1.91-4.076,3.917-4.076c2.005,0,3.932,1.497,3.932,4.076
		c0,2.468-1.576,4.267-3.932,4.267C54.821,11.894,53.246,10.095,53.246,7.627z M54.79,7.627c0,1.497,0.508,3.248,2.372,3.248
		c1.879,0,2.389-1.751,2.389-3.248c0-1.432-0.588-3.058-2.389-3.058C55.379,4.57,54.79,6.195,54.79,7.627z"/>
	<path fill="#68737A" d="M62.511,11.704V0h1.433v11.704H62.511z"/>
	<path fill="#68737A" d="M66.172,11.704V0h1.434v11.704H66.172z"/>
	<path fill="#68737A" d="M70.773,7.818c-0.016,1.592,1.114,3.057,2.69,3.057c0.733,0,1.625-0.271,2.182-0.685l0.415,0.781
		c-0.828,0.588-1.815,0.923-2.643,0.923c-2.484,0-4.124-1.529-4.124-4.331c0-2.755,1.974-4.014,3.773-4.014
		c2.42,0,3.231,2.181,3.073,4.268H70.773z M74.834,6.863c0-1.242-0.527-2.293-1.784-2.293c-1.529,0-2.133,1.274-2.182,2.293H74.834z
		"/>
	<path fill="#68737A" d="M84.926,11.417c0,3.04-1.894,4.267-4.043,4.267c-1.18,0-2.357-0.221-3.28-0.794L78,13.948
		c0.971,0.558,1.862,0.718,2.851,0.718c1.64,0,2.642-1.052,2.642-3.138v-1.083h-0.031c-0.557,0.781-1.401,1.45-2.66,1.45
		c-2.196,0-3.566-1.72-3.566-4.267c0-2.071,1.529-4.076,3.806-4.076c0.954,0,1.975,0.478,2.419,1.289h0.032V3.742h1.432V11.417z
		 M83.494,7.468c0-1.496-0.811-2.898-2.373-2.898c-1.654,0-2.341,1.306-2.341,2.994c0,1.705,0.732,3.311,2.246,3.311
		C82.761,10.875,83.494,9.235,83.494,7.468z"/>
	<path fill="#68737A" d="M88.062,7.818c-0.016,1.592,1.115,3.057,2.691,3.057c0.732,0,1.624-0.271,2.182-0.685l0.414,0.781
		c-0.828,0.588-1.815,0.923-2.642,0.923c-2.484,0-4.124-1.529-4.124-4.331c0-2.755,1.975-4.014,3.772-4.014
		c2.42,0,3.232,2.181,3.073,4.268H88.062z M92.124,6.863c0-1.242-0.526-2.293-1.785-2.293c-1.529,0-2.133,1.274-2.18,2.293H92.124z"
		/>
	<path fill="#68737A" d="M98.968,7.627c0-2.579,1.91-4.076,3.917-4.076c2.006,0,3.931,1.497,3.931,4.076
		c0,2.468-1.575,4.267-3.931,4.267C100.543,11.894,98.968,10.095,98.968,7.627z M100.511,7.627c0,1.497,0.508,3.248,2.373,3.248
		c1.877,0,2.387-1.751,2.387-3.248c0-1.432-0.588-3.058-2.387-3.058C101.1,4.57,100.511,6.195,100.511,7.627z"/>
	<path fill="#68737A" d="M108.583,11.704V4.57h-1.274V3.742h1.274V2.771c0-2.134,1.432-2.771,2.325-2.771
		c0.415,0,0.907,0.081,1.258,0.333l-0.319,0.733c-0.238-0.063-0.463-0.112-0.78-0.112c-0.24,0-1.052,0.063-1.052,1.353v1.435h1.912
		V4.57h-1.912v7.134H108.583z"/>
	<path fill="#68737A" d="M122.003,0.558l4.156,11.146h-1.782l-1.149-3.28h-4.251l-1.192,3.28h-1.498l4.537-11.146H122.003z
		 M122.864,7.31c-0.559-1.545-1.099-3.091-1.656-5.097h-0.031c-0.575,2.006-1.165,3.551-1.768,5.097H122.864z"/>
	<path fill="#68737A" d="M134.294,11.417c0,3.04-1.895,4.267-4.045,4.267c-1.178,0-2.355-0.221-3.279-0.794l0.399-0.941
		c0.971,0.558,1.863,0.718,2.848,0.718c1.641,0,2.644-1.052,2.644-3.138v-1.083h-0.032c-0.556,0.781-1.398,1.45-2.657,1.45
		c-2.198,0-3.566-1.72-3.566-4.267c0-2.071,1.527-4.076,3.803-4.076c0.956,0,1.976,0.478,2.42,1.289h0.033V3.742h1.432
		L134.294,11.417L134.294,11.417z M132.862,7.468c0-1.496-0.813-2.898-2.373-2.898c-1.656,0-2.34,1.306-2.34,2.994
		c0,1.705,0.732,3.311,2.244,3.311C132.129,10.875,132.862,9.235,132.862,7.468z"/>
	<path fill="#68737A" d="M137.89,4.73l0.574-0.605c0.336-0.335,0.862-0.574,1.196-0.574c0.35,0,0.875,0.254,1.32,0.781l-0.654,0.923
		c-0.347-0.174-0.7-0.335-1.065-0.335c-0.734,0-1.336,0.732-1.336,2.5v4.284h-1.434V3.742h1.399L137.89,4.73L137.89,4.73z"/>
	<path fill="#68737A" d="M141.713,1.115c0-0.398,0.336-0.843,0.907-0.843c0.574,0,0.908,0.445,0.908,0.843
		c0,0.431-0.207,0.972-0.908,0.972S141.713,1.545,141.713,1.115z M143.338,3.742v7.962h-1.434V3.742H143.338z"/>
	<path fill="#68737A" d="M151.679,11.066c-0.781,0.556-1.719,0.828-2.404,0.828c-3.773,0-4.251-3.088-4.251-4.188
		c0-1.991,1.32-4.156,4.316-4.156c0.812,0,1.543,0.207,2.133,0.652l-0.477,0.813c-0.463-0.224-1.053-0.414-1.641-0.414
		c-1.307,0-2.787,0.86-2.787,3.024c0,1.656,0.845,3.217,2.771,3.217c0.684,0,1.322-0.175,1.94-0.573L151.679,11.066z"/>
	<path fill="#68737A" d="M158.414,10.778c-0.814,0.701-1.529,1.116-2.564,1.116c-1.831,0-2.819-1.019-2.819-3.025V3.742h1.433v4.809
		c0,1.498,0.636,2.292,1.928,2.292c1.102,0,2.004-0.907,2.004-2.452V3.742h1.434v7.962h-1.417v-0.926H158.414z"/>
	<path fill="#68737A" d="M162.059,11.704V0h1.433v11.704H162.059z"/>
	<path fill="#68737A" d="M167.487,3.742h2.085V4.57h-2.085v4.505c0,1.115,0.222,1.784,1.101,1.784c0.524,0,0.826-0.127,1.096-0.27
		l0.351,0.795c-0.493,0.318-1.082,0.509-1.625,0.509c-1.589,0-2.355-0.923-2.355-2.548V4.57h-1.114V3.742h1.114V1.832l1.433-0.478
		L167.487,3.742L167.487,3.742z"/>
	<path fill="#68737A" d="M176.403,10.778c-0.812,0.701-1.529,1.116-2.562,1.116c-1.832,0-2.819-1.019-2.819-3.025V3.742h1.431v4.809
		c0,1.498,0.638,2.292,1.928,2.292c1.1,0,2.007-0.907,2.007-2.452V3.742h1.434v7.962h-1.418L176.403,10.778L176.403,10.778z"/>
	<path fill="#68737A" d="M181.448,4.73l0.575-0.605c0.334-0.335,0.858-0.574,1.192-0.574c0.353,0,0.877,0.254,1.323,0.781
		l-0.654,0.923c-0.352-0.174-0.7-0.335-1.067-0.335c-0.732,0-1.337,0.732-1.337,2.5v4.284h-1.433V3.742h1.399L181.448,4.73
		L181.448,4.73z"/>
	<path fill="#68737A" d="M189.171,10.843c-0.558,0.558-1.261,1.051-1.991,1.051c-1.336,0-2.261-0.956-2.261-2.453
		c0-1.386,1.179-2.261,2.834-2.754l1.927-0.605c-0.063-0.972-0.812-1.592-1.592-1.592c-0.923,0-1.512,0.383-2.085,0.86l-0.558-0.717
		c0.796-0.764,1.607-1.082,2.723-1.082c1.192,0,2.944,0.382,2.944,2.707V9.76c0,0.605,0.079,1.371,0.352,1.944h-1.562
		c-0.19-0.335-0.223-0.844-0.223-1.354L189.171,10.843z M188.309,7.436c-1.256,0.383-1.908,0.987-1.908,1.99
		c0,0.829,0.573,1.353,1.146,1.353c1.019,0,2.324-1.258,2.134-3.741L188.309,7.436z"/>
	<path fill="#68737A" d="M193.293,11.704V0h1.434v11.704H193.293z"/>
	<path fill="#68737A" d="M196.014,14.155l1.053-2.802c0.416-1.147,0.59-1.497,1.212-1.497c0.347,0,1.144,0.335,0.347,1.672
		l-1.733,2.979L196.014,14.155z"/>
	<path fill="#68737A" d="M212.796,11.704h-1.545V6.163h-5.444v5.541h-1.546V0.558h1.546v4.49h5.444v-4.49h1.545V11.704z"/>
	<path fill="#68737A" d="M219.833,10.778c-0.812,0.701-1.529,1.116-2.566,1.116c-1.83,0-2.816-1.019-2.816-3.025V3.742h1.434v4.809
		c0,1.498,0.637,2.292,1.926,2.292c1.098,0,2.007-0.907,2.007-2.452V3.742h1.433v7.962h-1.418v-0.926H219.833z"/>
	<path fill="#68737A" d="M224.626,4.73c0.652-0.764,1.607-1.179,2.48-1.179c1.26,0,2.037,0.525,2.531,1.179
		c0.765-0.701,1.847-1.179,2.74-1.179c1.768,0,2.658,1.147,2.707,2.834v5.319h-1.433V6.958c0-1.146-0.288-2.292-1.752-2.292
		c-1.209,0-2.038,0.637-2.038,2.246v4.793h-1.435V6.958c0-1.496-0.635-2.292-1.795-2.292c-1.213,0-1.992,0.781-1.992,2.309v4.729
		h-1.432V3.742h1.418L224.626,4.73L224.626,4.73z"/>
	<path fill="#68737A" d="M240.991,10.843c-0.559,0.558-1.26,1.051-1.991,1.051c-1.337,0-2.261-0.956-2.261-2.453
		c0-1.386,1.178-2.261,2.833-2.754l1.927-0.605c-0.062-0.972-0.812-1.592-1.592-1.592c-0.924,0-1.514,0.383-2.084,0.86l-0.561-0.717
		c0.799-0.764,1.609-1.082,2.724-1.082c1.194,0,2.945,0.382,2.945,2.707V9.76c0,0.605,0.08,1.371,0.352,1.944h-1.561
		c-0.191-0.335-0.224-0.844-0.224-1.354L240.991,10.843z M240.127,7.436c-1.255,0.383-1.907,0.987-1.907,1.99
		c0,0.829,0.574,1.353,1.147,1.353c1.018,0,2.322-1.258,2.132-3.741L240.127,7.436z"/>
	<path fill="#68737A" d="M246.53,4.73c0.747-0.797,1.895-1.179,2.722-1.179c1.834,0,2.817,1.02,2.817,3.025v5.128h-1.431V6.879
		c0-1.497-0.639-2.277-1.927-2.277c-1.132,0-2.165,0.78-2.165,2.309v4.793h-1.434V3.742h1.419V4.73H246.53z"/>
	<path fill="#68737A" d="M253.359,14.155l1.051-2.802c0.415-1.147,0.587-1.497,1.208-1.497c0.353,0,1.148,0.335,0.353,1.672
		l-1.735,2.979L253.359,14.155z"/>
	<path fill="#68737A" d="M47.004,27.815c-0.556,0.555-1.257,1.05-1.989,1.05c-1.338,0-2.262-0.956-2.262-2.454
		c0-1.384,1.179-2.26,2.834-2.752l1.927-0.605c-0.063-0.971-0.813-1.592-1.593-1.592c-0.922,0-1.513,0.382-2.085,0.858l-0.558-0.716
		c0.796-0.763,1.608-1.084,2.722-1.084c1.195,0,2.948,0.384,2.948,2.708v3.503c0,0.606,0.078,1.368,0.348,1.946h-1.56
		c-0.192-0.337-0.223-0.846-0.223-1.355L47.004,27.815z M46.146,24.407c-1.258,0.382-1.912,0.986-1.912,1.99
		c0,0.828,0.573,1.352,1.148,1.352c1.017,0,2.324-1.256,2.134-3.74L46.146,24.407z"/>
	<path fill="#68737A" d="M52.672,21.699c0.749-0.797,1.896-1.181,2.724-1.181c1.832,0,2.818,1.02,2.818,3.024v5.132h-1.433v-4.827
		c0-1.496-0.637-2.274-1.927-2.274c-1.131,0-2.166,0.778-2.166,2.308v4.794h-1.434V20.71h1.417V21.699z"/>
	<path fill="#68737A" d="M66.285,27.418h-0.032c-0.558,0.779-1.402,1.447-2.707,1.447c-2.15,0-3.52-1.719-3.52-4.267
		c0-2.069,1.496-4.079,3.677-4.079c1.084,0,2.054,0.417,2.549,1.182h0.032V16.97h1.433v11.705h-1.433V27.418z M66.285,24.438
		c0-1.495-0.812-2.899-2.374-2.899c-1.655,0-2.34,1.309-2.34,2.996c0,1.704,0.733,3.312,2.246,3.312
		C65.552,27.846,66.285,26.206,66.285,24.438z"/>
	<path fill="#68737A" d="M84.53,28.675h-1.209c-2.421-2.897-6.577-7.898-7.245-8.87h-0.032v8.87H74.77V17.529h1.146
		c2.452,2.898,6.561,7.77,7.31,8.882h0.031v-8.882h1.274L84.53,28.675L84.53,28.675z"/>
	<path fill="#68737A" d="M90.753,27.815c-0.558,0.555-1.258,1.05-1.99,1.05c-1.337,0-2.261-0.956-2.261-2.454
		c0-1.384,1.178-2.26,2.835-2.752l1.926-0.605c-0.062-0.971-0.812-1.592-1.592-1.592c-0.924,0-1.512,0.382-2.084,0.858l-0.559-0.716
		c0.796-0.763,1.609-1.084,2.722-1.084c1.196,0,2.946,0.384,2.946,2.708v3.503c0,0.606,0.08,1.368,0.35,1.946h-1.56
		c-0.19-0.337-0.223-0.846-0.223-1.355L90.753,27.815z M89.894,24.407c-1.259,0.382-1.912,0.986-1.912,1.99
		c0,0.828,0.574,1.352,1.146,1.352c1.02,0,2.326-1.256,2.134-3.74L89.894,24.407z"/>
	<path fill="#68737A" d="M96.771,20.71h2.086v0.828h-2.086v4.51c0,1.112,0.223,1.782,1.098,1.782c0.526,0,0.829-0.129,1.101-0.272
		l0.35,0.798c-0.494,0.319-1.084,0.51-1.625,0.51c-1.592,0-2.357-0.923-2.357-2.551v-4.776h-1.114V20.71h1.114v-1.907l1.434-0.48
		L96.771,20.71L96.771,20.71z"/>
	<path fill="#68737A" d="M105.813,27.749c-0.812,0.701-1.528,1.116-2.562,1.116c-1.832,0-2.818-1.02-2.818-3.023v-5.133h1.433v4.811
		c0,1.496,0.636,2.294,1.927,2.294c1.1,0,2.006-0.907,2.006-2.452v-4.652h1.432v7.966h-1.418L105.813,27.749L105.813,27.749z"/>
	<path fill="#68737A" d="M110.986,21.699l0.576-0.606c0.333-0.334,0.858-0.574,1.192-0.574c0.35,0,0.876,0.258,1.322,0.78
		l-0.654,0.926c-0.349-0.178-0.7-0.336-1.066-0.336c-0.732,0-1.337,0.732-1.337,2.502v4.284h-1.432V20.71h1.398L110.986,21.699
		L110.986,21.699z"/>
	<path fill="#68737A" d="M118.836,27.815c-0.557,0.555-1.256,1.05-1.991,1.05c-1.336,0-2.259-0.956-2.259-2.454
		c0-1.384,1.177-2.26,2.833-2.752l1.928-0.605c-0.065-0.971-0.813-1.592-1.592-1.592c-0.925,0-1.513,0.382-2.085,0.858l-0.56-0.716
		c0.797-0.763,1.609-1.084,2.724-1.084c1.193,0,2.946,0.384,2.946,2.708v3.503c0,0.606,0.082,1.368,0.35,1.946h-1.561
		c-0.191-0.337-0.221-0.846-0.221-1.355L118.836,27.815z M117.977,24.407c-1.258,0.382-1.91,0.986-1.91,1.99
		c0,0.828,0.573,1.352,1.145,1.352c1.021,0,2.327-1.256,2.135-3.74L117.977,24.407z"/>
	<path fill="#68737A" d="M123.085,28.675V16.97h1.432v11.705H123.085z"/>
	<path fill="#68737A" d="M131.604,17.529h3.184c1.814,0,3.233,0.936,3.233,2.865c0,1.639-0.797,2.562-1.863,3.247l2.77,4.746
		l-1.56,0.478l-2.58-4.81h-1.64v4.619h-1.544V17.529z M133.147,22.942h0.877c1.975,0,2.34-1.466,2.34-2.403
		c0-1.369-0.861-1.896-1.895-1.896h-1.322V22.942z"/>
	<path fill="#68737A" d="M141.235,24.789c-0.015,1.593,1.114,3.057,2.69,3.057c0.732,0,1.626-0.272,2.182-0.685l0.416,0.783
		c-0.828,0.587-1.816,0.921-2.643,0.921c-2.483,0-4.125-1.527-4.125-4.331c0-2.753,1.975-4.015,3.773-4.015
		c2.42,0,3.231,2.183,3.073,4.27H141.235z M145.295,23.833c0-1.242-0.527-2.295-1.782-2.295c-1.53,0-2.134,1.275-2.182,2.295
		H145.295z"/>
	<path fill="#68737A" d="M152.111,21.986c-0.574-0.384-1.036-0.51-1.465-0.51c-0.511,0-1.164,0.239-1.164,0.906
		c0,0.671,0.733,1.007,1.639,1.69c1.02,0.779,1.687,1.433,1.687,2.546c0,1.34-1.319,2.246-2.786,2.246
		c-0.906,0-1.926-0.396-2.452-1.003l0.7-0.812c0.464,0.43,1.083,0.795,1.719,0.795c0.67,0,1.353-0.348,1.353-1.131
		c0-0.923-0.828-1.32-1.576-1.863c-0.907-0.651-1.703-1.192-1.703-2.275c0-1.261,1.241-2.058,2.64-2.058
		c0.783,0,1.544,0.322,1.96,0.733L152.111,21.986z"/>
	<path fill="#68737A" d="M154.019,24.599c0-2.58,1.912-4.079,3.917-4.079c2.005,0,3.93,1.499,3.93,4.079
		c0,2.469-1.575,4.267-3.93,4.267C155.595,28.865,154.019,27.066,154.019,24.599z M155.563,24.599c0,1.496,0.511,3.247,2.374,3.247
		c1.879,0,2.389-1.751,2.389-3.247c0-1.435-0.589-3.061-2.389-3.061C156.151,21.538,155.563,23.163,155.563,24.599z"/>
	<path fill="#68737A" d="M168.842,27.749c-0.813,0.701-1.53,1.116-2.562,1.116c-1.832,0-2.821-1.02-2.821-3.023v-5.133h1.434v4.811
		c0,1.496,0.637,2.294,1.929,2.294c1.099,0,2.003-0.907,2.003-2.452v-4.652h1.433v7.966h-1.415V27.749L168.842,27.749z"/>
	<path fill="#68737A" d="M174.016,21.699l0.571-0.606c0.337-0.334,0.863-0.574,1.195-0.574c0.352,0,0.875,0.258,1.321,0.78
		l-0.653,0.926c-0.351-0.178-0.699-0.336-1.067-0.336c-0.731,0-1.338,0.732-1.338,2.502v4.284h-1.432V20.71h1.401L174.016,21.699
		L174.016,21.699z"/>
	<path fill="#68737A" d="M183.981,28.036c-0.78,0.557-1.717,0.829-2.404,0.829c-3.772,0-4.252-3.088-4.252-4.188
		c0-1.994,1.323-4.159,4.316-4.159c0.812,0,1.547,0.208,2.135,0.658l-0.478,0.81c-0.463-0.222-1.052-0.413-1.641-0.413
		c-1.306,0-2.786,0.858-2.786,3.025c0,1.655,0.847,3.215,2.77,3.215c0.686,0,1.322-0.176,1.943-0.574L183.981,28.036z"/>
	<path fill="#68737A" d="M186.464,24.789c-0.016,1.593,1.114,3.057,2.692,3.057c0.729,0,1.624-0.272,2.18-0.685l0.415,0.783
		c-0.826,0.587-1.812,0.921-2.642,0.921c-2.485,0-4.126-1.527-4.126-4.331c0-2.753,1.975-4.015,3.771-4.015
		c2.424,0,3.237,2.183,3.077,4.27H186.464z M190.524,23.833c0-1.242-0.525-2.295-1.785-2.295c-1.526,0-2.133,1.275-2.18,2.295
		H190.524z"/>
	<path fill="#68737A" d="M203.545,19.248c-0.54-0.399-1.256-0.796-1.926-0.796c-1.113,0-1.733,0.651-1.733,1.512
		c0,0.795,0.684,1.385,2.118,2.419c1.526,1.115,2.419,2.135,2.419,3.567c0,1.766-1.671,2.915-3.455,2.915
		c-1.067,0-2.341-0.383-3.137-1.164l0.685-0.921c0.652,0.46,1.37,0.969,2.421,0.969c1.1,0,1.942-0.588,1.942-1.831
		c0-1.4-1.672-2.309-2.579-2.976c-0.926-0.718-1.961-1.404-1.961-2.979c0-1.5,1.451-2.629,3.187-2.629
		c1.162,0,2.133,0.415,2.756,1.116L203.545,19.248z"/>
	<path fill="#68737A" d="M212.398,28.036c-0.779,0.557-1.718,0.829-2.402,0.829c-3.774,0-4.252-3.088-4.252-4.188
		c0-1.994,1.322-4.159,4.315-4.159c0.812,0,1.544,0.208,2.133,0.658l-0.477,0.81c-0.465-0.222-1.051-0.413-1.64-0.413
		c-1.308,0-2.788,0.858-2.788,3.025c0,1.655,0.843,3.215,2.771,3.215c0.686,0,1.32-0.176,1.942-0.574L212.398,28.036z"/>
	<path fill="#68737A" d="M213.593,18.086c0-0.4,0.333-0.846,0.906-0.846c0.575,0,0.908,0.445,0.908,0.846
		c0,0.427-0.208,0.969-0.908,0.969C213.798,19.055,213.593,18.515,213.593,18.086z M215.218,20.71v7.965h-1.434V20.71H215.218z"/>
	<path fill="#68737A" d="M218.512,24.789c-0.018,1.593,1.113,3.057,2.69,3.057c0.73,0,1.625-0.272,2.182-0.685l0.416,0.783
		c-0.829,0.587-1.816,0.921-2.644,0.921c-2.485,0-4.124-1.527-4.124-4.331c0-2.753,1.974-4.015,3.771-4.015
		c2.421,0,3.234,2.183,3.074,4.27H218.512z M222.571,23.833c0-1.242-0.526-2.295-1.784-2.295c-1.528,0-2.132,1.275-2.18,2.295
		H222.571z"/>
	<path fill="#68737A" d="M227.062,21.699c0.747-0.797,1.895-1.181,2.721-1.181c1.833,0,2.819,1.02,2.819,3.024v5.132h-1.433v-4.827
		c0-1.496-0.637-2.274-1.929-2.274c-1.127,0-2.162,0.778-2.162,2.308v4.794h-1.434V20.71h1.419v0.989H227.062z"/>
	<path fill="#68737A" d="M241.068,28.036c-0.778,0.557-1.715,0.829-2.4,0.829c-3.773,0-4.251-3.088-4.251-4.188
		c0-1.994,1.321-4.159,4.313-4.159c0.812,0,1.546,0.208,2.132,0.658l-0.478,0.81c-0.462-0.222-1.05-0.413-1.638-0.413
		c-1.306,0-2.788,0.858-2.788,3.025c0,1.655,0.845,3.215,2.771,3.215c0.686,0,1.321-0.176,1.941-0.574L241.068,28.036z"/>
	<path fill="#68737A" d="M243.556,24.789c-0.019,1.593,1.109,3.057,2.688,3.057c0.734,0,1.626-0.272,2.184-0.685l0.412,0.783
		c-0.827,0.587-1.814,0.921-2.642,0.921c-2.485,0-4.124-1.527-4.124-4.331c0-2.753,1.975-4.015,3.773-4.015
		c2.419,0,3.233,2.183,3.071,4.27H243.556z M247.615,23.833c0-1.242-0.528-2.295-1.784-2.295c-1.53,0-2.136,1.275-2.183,2.295
		H247.615z"/>
	<path fill="#68737A" d="M254.427,21.986c-0.573-0.384-1.034-0.51-1.466-0.51c-0.508,0-1.159,0.239-1.159,0.906
		c0,0.671,0.733,1.007,1.636,1.69c1.023,0.779,1.689,1.433,1.689,2.546c0,1.34-1.321,2.246-2.787,2.246
		c-0.907,0-1.926-0.396-2.449-1.003l0.697-0.812c0.464,0.43,1.086,0.795,1.72,0.795c0.669,0,1.356-0.348,1.356-1.131
		c0-0.923-0.829-1.32-1.577-1.863c-0.907-0.651-1.706-1.192-1.706-2.275c0-1.261,1.241-2.058,2.644-2.058
		c0.78,0,1.547,0.322,1.959,0.733L254.427,21.986z"/>
</g>
</svg>
